<?xml version="1.0" encoding="UTF-8" standalone="no"?><!DOCTYPE svg PUBLIC "-//W3C//DTD SVG 1.1//EN" "http://www.w3.org/Graphics/SVG/1.1/DTD/svg11.dtd"><svg width="100%" height="100%" viewBox="0 0 2389 2401" version="1.1" xmlns="http://www.w3.org/2000/svg" xmlns:xlink="http://www.w3.org/1999/xlink" xml:space="preserve" xmlns:serif="http://www.serif.com/" style="fill-rule:evenodd;clip-rule:evenodd;stroke-linejoin:round;stroke-miterlimit:2;"><rect id="Prancheta4" x="0" y="0" width="2388.133" height="2400.524" style="fill:none;"/><rect x="250.807" y="224.091" width="1880.829" height="1967.637" style="fill:#fff;"/><path d="M2365.947,620.546l0,1174.725c0,324.174 -263.188,587.363 -587.363,587.363l-1174.725,0c-324.174,0 -587.363,-263.188 -587.363,-587.363l0,-1174.725c0,-324.174 263.188,-587.363 587.363,-587.363l1174.725,0c324.174,0 587.363,263.188 587.363,587.363Zm-1371.942,515.256l40.128,-98.395c3.657,-8.968 11.886,-14.758 20.973,-14.758c9.087,0 17.316,5.79 20.973,14.758l40.89,100.264c2.668,6.541 7.832,11.516 14.161,13.641l98.333,33.015c9.575,3.215 16.098,12.77 16.098,23.582c0,10.812 -6.523,20.367 -16.098,23.582l-98.333,33.015c-6.328,2.125 -11.493,7.1 -14.161,13.641l-40.89,100.264c-3.657,8.968 -11.886,14.758 -20.973,14.758c-9.087,-0 -17.316,-5.79 -20.973,-14.758l-40.128,-98.395l-534.813,717.688c-6.625,8.891 -7.931,21.09 -3.358,31.374c4.573,10.284 14.213,16.827 24.792,16.827l1421.194,0c9.674,-0 18.635,-5.481 23.599,-14.432c4.963,-8.951 5.197,-20.056 0.617,-29.241l-200.918,-402.872c-4.868,-9.762 -14.382,-15.78 -24.661,-15.6c-10.279,0.18 -19.607,6.527 -24.179,16.454l-123.732,268.653c-4.643,10.082 -14.184,16.458 -24.625,16.458l-673.677,0c-11.37,0 -21.567,-7.545 -25.655,-18.983c-4.088,-11.438 -1.223,-24.408 7.208,-32.632l619.001,-603.823c5.76,-5.619 9.046,-13.602 9.046,-21.977c0,-8.374 -3.286,-16.358 -9.046,-21.977l-619.001,-603.823c-8.431,-8.224 -11.296,-21.195 -7.208,-32.632c4.088,-11.438 14.285,-18.983 25.655,-18.983l673.995,-0c10.275,0 19.693,6.177 24.416,16.014l123.659,257.536c4.661,9.707 13.9,15.861 24.039,16.011c10.139,0.15 19.531,-5.728 24.437,-15.295l200.469,-390.867c4.709,-9.181 4.565,-20.361 -0.379,-29.398c-4.944,-9.036 -13.95,-14.582 -23.681,-14.582l-1420.573,0c-10.579,-0 -20.219,6.543 -24.792,16.827c-4.573,10.284 -3.267,22.483 3.358,31.374l534.813,717.688Z" style="fill:#002e69;"/></svg>